<svg preserveAspectRatio="none" width="100%" height="100%" overflow="visible" style="display: block;" viewBox="0 0 2174.59 1183.29" fill="none" xmlns="http://www.w3.org/2000/svg">
<g id="Lines">
<path id="Rectangle 18626" d="M92.6269 760.347L392.889 838.839L393.156 837.876L93.3902 749.26L92.7809 749.08L92.7492 749.716L92.2545 759.839L92.2341 760.244L92.6269 760.347Z" stroke="var(--stroke-0, white)"/>
<path id="Rectangle 18631" opacity="0.48" d="M1645.84 52.4698L1422.57 450.684L1424.3 451.696L1652.78 78.4475L1652.98 78.1088L1652.9 77.7206L1647.69 52.7553L1647.15 50.1409L1645.84 52.4698Z" stroke="var(--stroke-0, white)" stroke-width="2"/>
<path id="Rectangle 18624" opacity="0.5" d="M710.207 631.776L90.4479 29.2933L90.4474 1.2209L710.207 631.776Z" stroke="var(--stroke-0, white)"/>
<path id="Rectangle 18633" opacity="0.5" d="M2098.72 58.2764L1487.51 623.419L1488.85 624.905L2100.06 89.2679L2100.4 88.9694L2100.4 88.516L2100.4 59.0111L2100.4 56.7241L2098.72 58.2764Z" stroke="var(--stroke-0, white)" stroke-width="2"/>
<path id="Rectangle 18630" opacity="0.5" d="M709.333 349.277L858.42 608.773L857.562 609.285L708.758 367.479L708.687 367.362L708.684 367.225L708.399 349.535L708.369 347.598L709.333 349.277Z" stroke="var(--stroke-0, white)"/>
<path id="Rectangle 18632" opacity="0.5" d="M575.543 747.59L724.547 832.302L725.066 831.447L593.754 746.818L593.631 746.738L593.486 746.738L575.793 746.654L573.884 746.646L575.543 747.59Z" stroke="var(--stroke-0, white)"/>
<path id="Rectangle 18628" opacity="0.5" d="M2096 453.418L1655.89 723.783L1656.41 724.64L2096.92 468.645L2097.17 468.496L2097.16 468.199L2096.76 453.831L2096.74 452.965L2096 453.418Z" stroke="var(--stroke-0, white)"/>
<path id="Rectangle 18629" d="M1358.18 967.061L1357.93 966.093L1876.32 819.957L1876.44 819.924L1876.55 819.949L1934.74 832.054L1934.75 833.031L1358.18 967.061Z" stroke="var(--stroke-0, white)"/>
</g>
</svg>
