<svg preserveAspectRatio="none" width="100%" height="100%" overflow="visible" style="display: block;" viewBox="0 0 2174.59 1183.29" fill="none" xmlns="http://www.w3.org/2000/svg">
<g id="Lines">
<path id="Rectangle 18626" d="M394.919 830.846L91.1756 767.142L91.175 757.007L394.919 830.846Z" fill="url(#paint0_linear_0_60)"/>
<path id="Rectangle 18631" opacity="0.48" d="M1423.44 451.173L1646.71 52.9591L1651.92 77.9252L1423.44 451.173Z" fill="url(#paint1_linear_0_60)"/>
<path id="Rectangle 18624" opacity="0.5" d="M741.338 662.736L89.9482 0L89.9482 29.5054L741.338 662.736Z" fill="var(--fill-0, #FF00C3)"/>
<path id="Rectangle 18633" opacity="0.5" d="M1488.19 624.153L2099.4 59.0106L2099.4 88.516L1488.19 624.153Z" fill="url(#paint2_linear_0_60)"/>
<path id="Rectangle 18630" opacity="0.5" d="M857.987 609.023L708.899 349.526L709.184 367.217L857.987 609.023Z" fill="url(#paint3_linear_0_60)"/>
<path id="Rectangle 18632" opacity="0.5" d="M724.794 831.867L575.79 747.155L593.483 747.238L724.794 831.867Z" fill="url(#paint4_linear_0_60)"/>
<path id="Rectangle 18628" opacity="0.5" d="M1656.15 724.208L2096.27 453.844L2096.66 468.213L1656.15 724.208Z" fill="url(#paint5_linear_0_60)"/>
<path id="Rectangle 18629" d="M1358.07 966.574L1934.63 832.544L1876.45 820.438L1358.07 966.574Z" fill="url(#paint6_linear_0_60)" fill-opacity="0.6"/>
</g>
<defs>
<linearGradient id="paint0_linear_0_60" x1="78.7241" y1="759.911" x2="439.805" y2="849.281" gradientUnits="userSpaceOnUse">
<stop stop-color="white"/>
<stop offset="1" stop-color="white" stop-opacity="0"/>
</linearGradient>
<linearGradient id="paint1_linear_0_60" x1="1488.01" y1="103.103" x2="1582.14" y2="401.029" gradientUnits="userSpaceOnUse">
<stop stop-color="#FF04C4"/>
<stop offset="1" stop-color="white"/>
</linearGradient>
<linearGradient id="paint2_linear_0_60" x1="2088.06" y1="-94.563" x2="1419.27" y2="722.511" gradientUnits="userSpaceOnUse">
<stop stop-color="white"/>
<stop offset="1" stop-color="white" stop-opacity="0"/>
</linearGradient>
<linearGradient id="paint3_linear_0_60" x1="741.161" y1="407.967" x2="834.747" y2="552.655" gradientUnits="userSpaceOnUse">
<stop stop-color="white"/>
<stop offset="1" stop-color="white" stop-opacity="0"/>
</linearGradient>
<linearGradient id="paint4_linear_0_60" x1="593.467" y1="755.006" x2="739.212" y2="846.939" gradientUnits="userSpaceOnUse">
<stop stop-color="white"/>
<stop offset="1" stop-color="white" stop-opacity="0"/>
</linearGradient>
<linearGradient id="paint5_linear_0_60" x1="2087.8" y1="452.516" x2="1587.83" y2="741.516" gradientUnits="userSpaceOnUse">
<stop stop-color="white"/>
<stop offset="1" stop-color="white" stop-opacity="0"/>
</linearGradient>
<linearGradient id="paint6_linear_0_60" x1="1871.16" y1="845.892" x2="1329.97" y2="1047.41" gradientUnits="userSpaceOnUse">
<stop stop-color="white" stop-opacity="0"/>
<stop offset="0.5" stop-color="white"/>
<stop offset="1" stop-color="white" stop-opacity="0"/>
</linearGradient>
</defs>
</svg>
