<svg preserveAspectRatio="none" width="100%" height="100%" overflow="visible" style="display: block;" viewBox="0 0 76.4971 66.5445" fill="none" xmlns="http://www.w3.org/2000/svg">
<path id="Vector 340" d="M68.5966 6.17739L76.4971 8.44994L75.0876 0L68.3524 4.71382L68.5966 6.17739ZM3.17048 66.1453C3.35987 66.5087 3.80795 66.6497 4.17129 66.4603L10.0923 63.374C10.4556 63.1846 10.5966 62.7365 10.4072 62.3732C10.2178 62.0098 9.76976 61.8688 9.40642 62.0582L4.14333 64.8016L1.39994 59.5385C1.21054 59.1752 0.762465 59.0342 0.399125 59.2236C0.0357847 59.4129 -0.105228 59.861 0.0841634 60.2244L3.17048 66.1453ZM69.2046 5.32382L69.0442 4.59948C49.0311 9.03143 15.7688 25.3897 3.12069 65.5797L3.82837 65.8024L4.53605 66.0251C16.9741 26.5025 49.6803 10.4074 69.365 6.04817L69.2046 5.32382Z" fill="black"/>
</svg>
